# xmcd CD database file
#
# Track frame offsets:
#	150
#	22757
#	47406
#	69922
#	87774
#	110704
#	144902
#	157250
#	183622
#	202216
#	217235
#	237449
#	249376
#	271615
#	281261
#	291870
#	307733
#	319497
#	334493
#
# Disc length: 4647 seconds
#
# Revision: 0
# Processed by: cddbd v1.5.2PL0 Copyright (c) Steve Scherf et al.
# Submitted via: CDex 1.70beta2
#
DISCID=1d122513
DTITLE=Various Artist - Jazz in Zürich CD2
DYEAR=2004
DGENRE=Jazz
TTITLE0=Irène Schweizer-Louis Moholo 
TTITLE1=Pierre Favre 
TTITLE2=Harald Haerter 
TTITLE3=Karl ein Karl 
TTITLE4=Nathanael Su - Fredi Lüscher 
TTITLE5=Lucas Niggli Zoom Ensemble
TTITLE6=Saadet Türköz 
TTITLE7=Chris Wiesendanger Quartet 
TTITLE8=Christoph Gallio
TTITLE9=Urs Voerkel 
TTITLE10=Noisy Minority 
TTITLE11=Priska Walss - Gabriela Friedli 
TTITLE12=Marianne Racine Quartet 
TTITLE13=Markus Eichenberger - Ivano Torre 
TTITLE14=Peggy Chew - Adrian Frey 
TTITLE15=Co Streiff Sextet 
TTITLE16=Stephan Wittwer 
TTITLE17=Luigi Archetti - Jan Schlegel 
TTITLE18=Nik Bärtsch¹s Mobile Aer 
EXTD=YEAR: 2004
EXTT0=
EXTT1=
EXTT2=
EXTT3=
EXTT4=
EXTT5=
EXTT6=
EXTT7=
EXTT8=
EXTT9=
EXTT10=
EXTT11=
EXTT12=
EXTT13=
EXTT14=
EXTT15=
EXTT16=
EXTT17=
EXTT18=
PLAYORDER=
